<?xml version="1.0" standalone="no"?>
<!DOCTYPE svg PUBLIC "-//W3C//DTD SVG 20010904//EN"
 "http://www.w3.org/TR/2001/REC-SVG-20010904/DTD/svg10.dtd">
<svg version="1.0" xmlns="http://www.w3.org/2000/svg"
 width="499.000000pt" height="479.000000pt" viewBox="0 0 499.000000 479.000000"
 preserveAspectRatio="xMidYMid meet">

<g transform="translate(0.000000,479.000000) scale(0.100000,-0.100000)"
fill="#000000" stroke="none">
<path d="M2304 3805 c-84 -48 -152 -111 -207 -193 -57 -86 -83 -145 -106 -242
l-17 -75 -90 -30 c-49 -16 -190 -59 -312 -95 l-222 -65 -7 -35 c-12 -57 -9
-248 3 -260 14 -14 35 -8 469 129 294 92 370 120 350 127 -16 6 1 215 25 309
23 89 51 165 63 165 4 0 7 5 7 11 0 8 -5 8 -15 -1 -12 -10 -16 -9 -21 3 -3 9
-3 20 -1 24 3 5 -7 14 -22 21 -27 12 -29 16 -22 68 2 19 85 96 145 135 73 48
62 50 -20 4z"/>
<path d="M2505 3676 c-64 -20 -117 -51 -165 -95 l-45 -42 49 36 c91 67 170 89
274 76 92 -12 221 -73 280 -132 53 -55 95 -125 89 -149 -4 -14 5 -24 37 -38
24 -12 43 -16 45 -10 2 6 -9 41 -24 80 -47 120 -167 229 -296 269 -70 22 -183
24 -244 5z"/>
<path d="M2506 3444 c-112 -35 -149 -52 -86 -39 65 13 241 76 205 74 -5 -1
-59 -16 -119 -35z"/>
<path d="M2328 3383 c7 -3 16 -2 19 1 4 3 -2 6 -13 5 -11 0 -14 -3 -6 -6z"/>
<path d="M2275 3368 c-36 -110 -58 -279 -37 -292 13 -8 89 11 235 59 127 41
149 42 203 11 23 -13 73 -34 110 -46 75 -24 168 -61 309 -120 50 -21 108 -43
130 -50 22 -7 49 -18 60 -25 11 -6 57 -24 103 -39 45 -14 106 -37 135 -51 97
-44 161 -64 220 -69 31 -2 57 -1 57 4 0 5 -57 31 -127 59 -71 27 -227 89 -348
136 -269 107 -359 141 -543 211 l-142 53 -166 -50 c-91 -28 -168 -49 -170 -46
-3 2 16 10 41 17 26 7 42 17 38 23 -3 6 -1 7 5 3 7 -4 12 -2 12 3 0 6 5 11 11
11 5 0 7 -5 3 -12 -4 -7 -3 -8 4 -4 24 15 12 28 -20 21 -53 -10 -88 -27 -81
-38 3 -5 1 -7 -4 -4 -20 13 -22 46 -3 52 10 3 17 13 15 23 -2 9 -4 21 -4 25
-1 5 -5 6 -10 3 -5 -3 -8 28 -7 69 1 55 -2 75 -12 75 -7 0 -14 -6 -17 -12z
m32 -170 c-3 -8 -6 -5 -6 6 -1 11 2 17 5 13 3 -3 4 -12 1 -19z"/>
<path d="M2103 2895 c-181 -40 -331 -179 -371 -345 -48 -199 -8 -364 118 -491
41 -41 86 -71 175 -116 66 -34 147 -70 180 -81 163 -54 294 -148 309 -223 19
-95 0 -166 -57 -216 -47 -41 -98 -57 -177 -57 -156 1 -273 113 -287 275 l-6
57 -144 7 c-79 4 -146 5 -148 3 -3 -3 -5 -47 -6 -99 -1 -113 23 -198 80 -286
47 -73 144 -163 206 -192 74 -35 192 -61 277 -61 75 0 173 15 193 29 6 4 33
16 60 26 90 33 215 128 221 168 1 8 13 32 27 55 15 22 36 78 48 124 17 68 20
100 16 178 -10 169 -59 271 -167 348 -105 76 -86 66 -352 186 -86 39 -177 86
-203 104 -84 59 -110 172 -60 258 23 39 72 84 91 84 5 0 -8 -11 -27 -25 -20
-13 -39 -32 -43 -41 -7 -17 -6 -17 12 0 28 24 116 56 157 56 49 0 159 -46 194
-82 16 -17 44 -65 61 -108 28 -69 35 -78 62 -84 71 -14 286 1 248 17 -8 4 -61
9 -116 11 -56 2 -107 6 -113 10 -6 4 -10 30 -8 63 1 39 -2 58 -11 61 -10 3
-10 7 -1 18 11 13 2 19 -24 15 -4 0 -6 3 -5 8 2 5 -8 19 -22 31 -18 17 -20 21
-7 17 13 -5 17 -3 14 5 -2 7 -14 12 -27 10 -19 -2 -22 2 -18 22 4 18 1 23 -10
18 -12 -4 -13 -2 -4 14 8 15 7 24 -6 39 -16 19 -16 19 1 6 9 -7 17 -10 17 -5
0 11 -20 42 -20 31 0 -4 -6 -2 -14 5 -8 7 -12 16 -9 21 2 4 -5 7 -16 7 -23 0
-28 15 -9 26 7 4 8 3 4 -4 -4 -7 -3 -12 2 -12 6 0 10 16 9 36 -1 32 -2 34 -11
15 -9 -22 -26 -29 -26 -11 0 6 -9 19 -20 30 -12 12 -18 25 -15 31 4 5 3 9 -2
8 -4 -1 -10 0 -13 1 -41 16 -145 19 -207 5z m617 -1609 c0 -2 -8 -10 -17 -17
-16 -13 -17 -12 -4 4 13 16 21 21 21 13z"/>
<path d="M2712 2793 c36 -39 113 -178 132 -238 9 -27 22 -86 29 -130 l13 -80
42 -3 c23 -2 50 2 59 7 17 10 16 11 -4 17 -13 3 -21 10 -18 14 3 5 7 38 9 74
1 37 6 69 9 73 4 3 2 12 -4 20 -8 9 -8 13 -1 13 8 0 8 9 1 30 -13 36 -28 40
-21 5 3 -18 0 -25 -12 -25 -10 0 -13 6 -9 15 3 9 2 15 -3 14 -23 -4 -44 2 -44
13 0 7 -15 43 -32 80 -27 55 -42 72 -83 97 -28 17 -59 31 -70 31 -17 0 -16 -3
7 -27z"/>
<path d="M2415 2800 c-3 -5 -1 -10 4 -10 6 0 11 5 11 10 0 6 -2 10 -4 10 -3 0
-8 -4 -11 -10z"/>
<path d="M1479 2755 l-136 -45 -9 -77 c-5 -43 -11 -399 -13 -791 -3 -670 -2
-714 14 -733 15 -16 32 -19 101 -19 45 0 105 5 133 12 l51 11 0 844 c0 464 -1
843 -2 842 -2 0 -64 -20 -139 -44z"/>
<path d="M2420 2770 c0 -5 5 -10 10 -10 6 0 10 5 10 10 0 6 -4 10 -10 10 -5 0
-10 -4 -10 -10z"/>
<path d="M3526 2682 c-3 -31 -9 -178 -12 -326 -5 -216 -4 -270 7 -277 7 -4 17
-5 21 -3 11 7 10 651 -1 658 -5 3 -11 -20 -15 -52z"/>
<path d="M2467 2665 c6 -32 11 -41 17 -34 2 2 -2 18 -10 34 l-13 30 6 -30z"/>
<path d="M2703 2069 c20 -17 37 -38 37 -47 0 -9 14 -33 31 -52 105 -118 153
-280 130 -443 -21 -151 -68 -246 -172 -347 l-68 -66 58 -13 c55 -12 164 -10
241 4 l35 7 -3 359 c-2 243 1 359 8 359 5 0 10 -14 10 -31 0 -24 3 -29 13 -22
16 14 295 16 381 4 38 -5 76 -17 85 -26 14 -13 17 -61 21 -330 3 -208 9 -318
16 -325 18 -18 147 -24 213 -9 34 7 61 17 61 21 0 4 -56 8 -125 8 l-125 0 0
344 0 344 -172 8 c-95 4 -188 7 -206 7 -18 -1 -30 2 -28 6 3 4 -8 7 -25 6 -16
-1 -32 2 -35 7 -3 4 -8 6 -12 4 -4 -2 -13 2 -20 10 -7 8 -8 14 -2 14 5 0 10 4
10 10 0 11 -32 1 -41 -13 -4 -5 -6 3 -6 17 0 15 4 23 10 19 6 -3 7 -1 3 5 -4
7 -16 12 -26 12 -23 0 -42 32 -34 54 3 9 1 16 -5 16 -6 0 -11 -9 -11 -21 0
-11 -5 -17 -10 -14 -7 4 -6 13 1 27 9 16 8 22 -2 29 -11 7 -12 12 -1 29 15 25
15 40 -1 20 -7 -8 -19 -16 -27 -18 -11 -3 -11 1 3 16 17 19 16 19 -63 20 -44
1 -100 6 -123 12 -63 14 -65 13 -24 -21z m222 -88 c-3 -6 -11 -11 -16 -11 -5
0 -4 6 3 14 14 16 24 13 13 -3z m48 -85 c4 -10 0 -12 -15 -8 -15 4 -17 7 -6
13 17 11 15 11 21 -5z"/>
<path d="M2992 1955 c0 -16 2 -22 5 -12 2 9 2 23 0 30 -3 6 -5 -1 -5 -18z"/>
</g>
</svg>
